<svg width="38" height="38" viewBox="0 0 38 38" fill="none" xmlns="http://www.w3.org/2000/svg">
<rect width="38" height="38" rx="19" fill="#E8E8E8" fill-opacity="0.46"/>
<path d="M23.032 12.75C23.487 12.7496 23.9376 12.8401 24.3572 13.0161C24.7768 13.1921 25.1571 13.4501 25.4757 13.775C26.1322 14.4415 26.5002 15.3395 26.5002 16.275C26.5002 17.2105 26.1322 18.1085 25.4757 18.775L19.0007 25.3313L12.5257 18.775C11.8692 18.1085 11.5012 17.2105 11.5012 16.275C11.5012 15.3395 11.8692 14.4415 12.5257 13.775C12.8445 13.4503 13.2248 13.1925 13.6444 13.0164C14.064 12.8404 14.5144 12.7497 14.9695 12.7497C15.4245 12.7497 15.8749 12.8404 16.2945 13.0164C16.7141 13.1925 17.0944 13.4503 17.4132 13.775L19.0007 15.4L20.582 13.7875C20.8996 13.4587 21.2803 13.1974 21.7013 13.0192C22.1222 12.8409 22.5748 12.7493 23.032 12.75ZM23.032 11.5C22.4105 11.4995 21.7951 11.623 21.222 11.8634C20.6489 12.1038 20.1296 12.4563 19.6945 12.9L19.0007 13.6L18.307 12.9C17.8713 12.4571 17.3518 12.1053 16.7788 11.8651C16.2058 11.625 15.5908 11.5013 14.9695 11.5013C14.3482 11.5013 13.7331 11.625 13.1601 11.8651C12.5871 12.1053 12.0676 12.4571 11.632 12.9C10.7456 13.8023 10.249 15.0165 10.249 16.2813C10.249 17.546 10.7456 18.7602 11.632 19.6625L19.0007 27.125L26.3695 19.6625C27.2558 18.7602 27.7524 17.546 27.7524 16.2813C27.7524 15.0165 27.2558 13.8023 26.3695 12.9C25.9339 12.4568 25.4145 12.1048 24.8415 11.8644C24.2685 11.6241 23.6533 11.5002 23.032 11.5Z" fill="white"/>
</svg>
